<?xml version="1.0" standalone="no"?><!DOCTYPE svg PUBLIC "-//W3C//DTD SVG 1.1//EN" "http://www.w3.org/Graphics/SVG/1.1/DTD/svg11.dtd"><svg t="1637508043719" class="icon" viewBox="0 0 1024 1024" version="1.1" xmlns="http://www.w3.org/2000/svg" p-id="3676" xmlns:xlink="http://www.w3.org/1999/xlink" width="200" height="200"><defs><style type="text/css"></style></defs><path d="M512 0c-282.784 0-512 229.216-512 512s229.216 512 512 512c282.784 0 512-229.216 512-512s-229.216-512-512-512zM640 768l-256 0 0-64 256 0 0 64zM704 256c35.36 0 64 28.64 64 64s-28.64 64-64 64-64-28.64-64-64c0-35.36 28.64-64 64-64zM320 256c35.36 0 64 28.64 64 64s-28.64 64-64 64-64-28.64-64-64c0-35.36 28.64-64 64-64z" p-id="3677" fill="#f4ea2a"></path></svg>