<?xml version="1.0" standalone="no"?><!DOCTYPE svg PUBLIC "-//W3C//DTD SVG 1.1//EN" "http://www.w3.org/Graphics/SVG/1.1/DTD/svg11.dtd"><svg t="1637508071058" class="icon" viewBox="0 0 1024 1024" version="1.1" xmlns="http://www.w3.org/2000/svg" p-id="4524" xmlns:xlink="http://www.w3.org/1999/xlink" width="200" height="200"><defs><style type="text/css"></style></defs><path d="M828.9 195.2C744.1 110.7 631.7 64 512.1 64c-119.8 0-232.3 46.5-316.8 131.2C110.5 279.8 64 392.2 64 512c0 119.8 46.5 232.2 131.3 317 84.5 84.5 197 131 316.8 131 119.8 0 232.3-46.5 317-131.2 174.6-174.8 174.6-458.8-0.2-633.6zM662.8 367.9c30.5 0 55 24.7 55 55 0 30.2-24.7 54.7-55 54.7-30.2 0-54.8-24.5-54.8-54.7 0.1-30.5 24.6-55 54.8-55z m-281.1 0c30.5 0 55 24.7 55 55 0 30.2-24.5 54.7-55 54.7-30.2 0-55-24.5-55-54.7 0-30.5 24.8-55 55-55z m345.7 307.2c-22.9 28.2-89.3 95.1-208 99.4-120.7 4.4-192.2-79.5-197-86.1-4.8-6.6-16.3-19.7-18.1-34.4v-0.9c-0.7-15.8 11.2-29.1 26.3-29.5 8-0.2 15.3 3 20.6 8.5h0.2s0 0.2 0.2 0.5c1.4 1.6 2.5 3.2 3.7 5 14.9 19 69.9 80.8 162 77.4 82-3 140.9-55.7 165.2-81.5 13.3-14.2 36.2-13.1 47 3.4 0.5 0.7 0.9 1.4 1.1 2.3 6.4 11.4 5 25.8-3.2 35.9z" fill="#f4ea2a" p-id="4525"></path></svg>