<?xml version="1.0" standalone="no"?><!DOCTYPE svg PUBLIC "-//W3C//DTD SVG 1.1//EN" "http://www.w3.org/Graphics/SVG/1.1/DTD/svg11.dtd"><svg t="1637508006930" class="icon" viewBox="0 0 1024 1024" version="1.1" xmlns="http://www.w3.org/2000/svg" p-id="2652" xmlns:xlink="http://www.w3.org/1999/xlink" width="200" height="200"><defs><style type="text/css"></style></defs><path d="M512 512m-512 0a512 512 0 1 0 1024 0 512 512 0 1 0-1024 0Z" fill="#FFC51F" p-id="2653"></path><path d="M294.4 793.536C294.4 737.8176 387.7504 665.6 511.9872 665.6S729.6 737.4976 729.6 793.6l-435.2-0.064z" fill="#B67600" p-id="2654"></path><path d="M320 396.8m-64 0a64 64 0 1 0 128 0 64 64 0 1 0-128 0Z" fill="#815400" p-id="2655"></path><path d="M704 396.8m-64 0a64 64 0 1 0 128 0 64 64 0 1 0-128 0Z" fill="#815400" p-id="2656"></path></svg>